<?xml version="1.0" encoding="UTF-8"?>
<svg width="375px" height="322px" viewBox="0 0 375 322" version="1.1" xmlns="http://www.w3.org/2000/svg" xmlns:xlink="http://www.w3.org/1999/xlink">
    <title>view-1-icon</title>
    <defs>
        <rect id="path-1" x="0" y="0" width="375" height="322"></rect>
        <linearGradient x1="19.4537626%" y1="2.22812934%" x2="77.6038169%" y2="74.2935467%" id="linearGradient-3">
            <stop stop-color="#3023AE" offset="0%"></stop>
            <stop stop-color="#C0C3FD" offset="100%"></stop>
        </linearGradient>
        <linearGradient x1="49.576163%" y1="33.9026591%" x2="51.0943712%" y2="27.2472923%" id="linearGradient-4">
            <stop stop-color="#43386B" offset="0%"></stop>
            <stop stop-color="#A996EB" offset="100%"></stop>
        </linearGradient>
        <linearGradient x1="38.2933028%" y1="50.0002206%" x2="52.0305667%" y2="50.0002206%" id="linearGradient-5">
            <stop stop-color="#CC8241" offset="0%"></stop>
            <stop stop-color="#DEA861" offset="100%"></stop>
        </linearGradient>
        <linearGradient x1="22.1598134%" y1="39.9638588%" x2="73.6037609%" y2="58.5087517%" id="linearGradient-6">
            <stop stop-color="#DEA861" offset="0%"></stop>
            <stop stop-color="#EBCBA0" offset="100%"></stop>
        </linearGradient>
    </defs>
    <g id="Welcome" stroke="none" stroke-width="1" fill="none" fill-rule="evenodd">
        <g id="View-1" transform="translate(0.000000, -181.000000)">
            <g id="view-1-icon" transform="translate(0.000000, 181.000000)">
                <mask id="mask-2" fill="white">
                    <use xlink:href="#path-1"></use>
                </mask>
                <g id="Mask" opacity="0"></g>
                <g mask="url(#mask-2)">
                    <g transform="translate(-31.000000, -58.000000)">
                        <g id="Rectangle" opacity="0.103673735">
                            <g id="Mask" opacity="0.082938058" transform="translate(218.265057, 218.761177) rotate(-28.000000) translate(-218.265057, -218.761177) translate(56.765057, 57.761177)" fill="#000000" fill-rule="nonzero">
                                <path d="M9.27466824,186.84757 C4.58363081,186.84757 0.74572735,190.685654 0.74572735,195.376112 C0.74572735,200.067369 4.58363081,203.905452 9.27466824,203.905452 C13.9657057,203.905452 17.8036091,200.067369 17.8036091,195.376112 C17.8028096,190.685654 13.9649061,186.84757 9.27466824,186.84757 Z" id="Path"></path>
                                <path d="M9.69110599,119.451633 C5.00006857,119.451633 1.16216511,123.289537 1.16216511,127.980574 C1.16216511,132.671612 5.00006857,136.509515 9.69110599,136.509515 C14.3821434,136.509515 18.2200469,132.671612 18.2200469,127.980574 C18.2192473,123.289537 14.3813439,119.451633 9.69110599,119.451633 Z" id="Path"></path>
                                <path d="M127.992876,304.709025 C123.301838,304.709025 119.463935,308.546928 119.463935,313.237966 C119.463935,317.929003 123.301838,321.766907 127.992876,321.766907 C132.683913,321.766907 136.521817,317.929003 136.521817,313.237966 C136.521817,308.546928 132.683913,304.709025 127.992876,304.709025 Z" id="Path"></path>
                                <path d="M59.7198038,43.0737756 C50.3380887,43.0737756 42.661922,50.7497624 42.661922,60.1312576 C42.661922,69.5127528 50.3372891,77.1895392 59.7198038,77.1895392 C69.1023184,77.1895392 76.7776855,69.5135523 76.7776855,60.1320572 C76.7776855,50.750562 69.1015188,43.0737756 59.7198038,43.0737756 Z" id="Path"></path>
                                <path d="M60.1401002,110.914612 C50.7583852,110.914612 43.0822184,118.590779 43.0822184,127.972494 C43.0822184,137.354209 50.7583852,145.030376 60.1401002,145.030376 C69.5218152,145.030376 77.197982,137.354209 77.197982,127.972494 C77.197982,118.590779 69.5218152,110.914612 60.1401002,110.914612 Z" id="Path"></path>
                                <path d="M59.7236625,178.310549 C50.3419474,178.310549 42.6657807,185.986716 42.6657807,195.368431 C42.6657807,204.750146 50.3419474,212.426313 59.7236625,212.426313 C69.1053775,212.426313 76.7815442,204.750946 76.7815442,195.368431 C76.7815442,185.986716 69.1053775,178.310549 59.7236625,178.310549 Z" id="Path"></path>
                                <path d="M313.666705,136.0692 C318.357742,136.0692 322.195646,132.231296 322.195646,127.540259 C322.195646,122.849221 318.357742,119.011318 313.666705,119.011318 C308.975668,119.011318 305.137764,122.849221 305.137764,127.540259 C305.137764,132.231296 308.975668,136.0692 313.666705,136.0692 Z" id="Path"></path>
                                <path d="M194.948498,18.2077454 C199.639535,18.2077454 203.477438,14.369662 203.477438,9.67840468 C203.477438,4.98794696 199.639535,1.1498636 194.948498,1.1498636 C190.25746,1.1498636 186.419557,4.98794696 186.419557,9.67920428 C186.420356,14.369662 190.25826,18.2077454 194.948498,18.2077454 Z" id="Path"></path>
                                <path d="M127.56064,76.7692427 C136.942355,76.7692427 144.618522,69.093076 144.618522,59.7113609 C144.618522,50.3296459 136.942355,42.6534792 127.56064,42.6534792 C118.178925,42.6534792 110.502759,50.3296459 110.502759,59.7113609 C110.502759,69.093076 118.178925,76.7692427 127.56064,76.7692427 Z" id="Path"></path>
                                <path d="M127.55256,17.7913076 C132.243598,17.7913076 136.081501,13.9532242 136.081501,9.26196693 C136.081501,4.57150921 132.243598,0.73342584 127.55256,0.73342584 C122.861523,0.73342584 119.023619,4.57150921 119.023619,9.26276653 C119.023619,13.9532242 122.861523,17.7913076 127.55256,17.7913076 Z" id="Path"></path>
                                <path d="M194.956578,77.1856805 C204.338293,77.1856805 212.014459,69.5095137 212.014459,60.1277987 C212.014459,50.7460837 204.338293,43.0699169 194.956578,43.0699169 C185.574863,43.0699169 177.898696,50.7460837 177.898696,60.1277987 C177.898696,69.5095137 185.574863,77.1856805 194.956578,77.1856805 Z" id="Path"></path>
                                <path d="M60.5888584,245.314652 C51.2071433,245.314652 43.5309766,252.990819 43.5309766,262.372534 C43.5309766,271.754249 51.2071433,279.430416 60.5888584,279.430416 C69.9705734,279.430416 77.6467401,271.755048 77.6467401,262.373333 C77.6467401,252.990819 69.9705734,245.314652 60.5888584,245.314652 Z" id="Path"></path>
                                <path d="M195.180957,102.214826 C181.284839,102.214826 170.067964,113.431701 170.067964,127.327819 C170.067964,141.223936 181.284839,152.440811 195.180957,152.440811 C209.077074,152.440811 220.293949,141.223936 220.293949,127.327819 C220.293949,113.431701 209.077074,102.214826 195.180957,102.214826 Z" id="Path"></path>
                                <path d="M262.801273,177.886394 C253.419558,177.886394 245.743391,185.562561 245.743391,194.944276 C245.743391,204.325991 253.419558,212.002158 262.801273,212.002158 C272.182988,212.002158 279.859155,204.325991 279.859155,194.944276 C279.859155,185.562561 272.182988,177.886394 262.801273,177.886394 Z" id="Path"></path>
                                <path d="M262.384835,245.282332 C253.00312,245.282332 245.326953,252.958498 245.326953,262.340213 C245.326953,271.721928 253.00312,279.398095 262.384835,279.398095 C271.76655,279.398895 279.442717,271.722728 279.442717,262.341013 C279.442717,252.958498 271.76655,245.282332 262.384835,245.282332 Z" id="Path"></path>
                                <path d="M262.380977,110.045558 C252.999262,110.045558 245.323095,117.721724 245.323095,127.103439 C245.323095,136.485154 252.999262,144.161321 262.380977,144.161321 C271.762692,144.161321 279.438858,136.485154 279.438858,127.103439 C279.438858,117.721724 271.762692,110.045558 262.380977,110.045558 Z" id="Path"></path>
                                <path d="M313.250267,186.407255 C308.55923,186.407255 304.721326,190.245339 304.721326,194.936596 C304.721326,199.627054 308.55923,203.465137 313.250267,203.465137 C317.941305,203.465137 321.779208,199.627054 321.779208,194.935796 C321.778409,190.245339 317.940505,186.407255 313.250267,186.407255 Z" id="Path"></path>
                                <path d="M262.797414,42.6496205 C253.415699,42.6496205 245.739533,50.3256073 245.739533,59.7071025 C245.739533,69.0885976 253.4149,76.765384 262.797414,76.765384 C272.179129,76.765384 279.855296,69.0893972 279.855296,59.707902 C279.855296,50.3264069 272.179129,42.6496205 262.797414,42.6496205 Z" id="Path"></path>
                                <path d="M127.760416,170.475959 C113.864299,170.475959 102.647424,181.692834 102.647424,195.588952 C102.647424,209.485069 113.864299,220.701944 127.760416,220.701944 C141.656534,220.701944 152.873409,209.485069 152.873409,195.588952 C152.873409,181.692834 141.656534,170.475959 127.760416,170.475959 Z" id="Path"></path>
                                <path d="M127.148061,245.28619 C117.766346,245.28619 110.09018,252.962357 110.09018,262.344072 C110.09018,271.725787 117.766346,279.401954 127.148061,279.401954 C136.529776,279.401954 144.205943,271.725787 144.205943,262.344072 C144.205943,252.962357 136.529776,245.28619 127.148061,245.28619 Z" id="Path"></path>
                                <path d="M127.34012,102.635122 C113.444003,102.635122 102.227127,113.851997 102.227127,127.748115 C102.227127,141.644232 113.444003,152.861108 127.34012,152.861108 C141.236238,152.861108 152.453113,141.644232 152.453113,127.748115 C152.453113,113.851997 141.236238,102.635122 127.34012,102.635122 Z" id="Path"></path>
                                <path d="M194.543999,245.702628 C185.162284,245.702628 177.486117,253.378615 177.486117,262.76011 C177.486117,272.142405 185.162284,279.818392 194.543999,279.818392 C203.925714,279.818392 211.60188,272.142405 211.60188,262.76091 C211.60268,253.378615 203.926513,245.702628 194.543999,245.702628 Z" id="Path"></path>
                                <path d="M194.552079,304.680563 C189.861041,304.680563 186.023138,308.518467 186.023138,313.209504 C186.023138,317.900541 189.861041,321.738445 194.552079,321.738445 C199.243116,321.738445 203.08102,317.900541 203.08102,313.209504 C203.08102,308.518467 199.243116,304.680563 194.552079,304.680563 Z" id="Path"></path>
                                <path d="M194.764519,169.610763 C180.868401,169.610763 169.651526,180.827638 169.651526,194.723756 C169.651526,208.619873 180.868401,219.836748 194.764519,219.836748 C208.660636,219.836748 219.877512,208.619873 219.877512,194.723756 C219.877512,180.827638 208.660636,169.610763 194.764519,169.610763 Z" id="Path"></path>
                            </g>
                            <rect fill="url(#linearGradient-3)" x="40" y="43" width="355" height="347"></rect>
                        </g>
                        <g id="mobile-app" transform="translate(152.000000, 102.000000)">
                            <path d="M81,6.46764108 L70.387497,0.452316951 L70.3846627,0.460375527 C69.2776584,-0.210098004 67.8240572,-0.175043198 66.2259058,0.74282862 L6.26627609,35.1924356 C2.80557166,37.1804863 0,42.5148608 0,47.1066374 L0,194.85781 C0,197.513514 0.941803967,199.331931 2.40309826,200.014493 L2.40107374,200.019731 L12.954056,206 L81,6.46764108 Z" id="Path" fill="url(#linearGradient-4)" fill-rule="nonzero"></path>
                            <path d="M76.7763032,170.859553 L17.2236968,205.252833 C13.7865078,207.238058 11,205.130943 11,200.546621 L11,53.0353072 C11,48.4509848 13.7865078,43.1256724 17.2236968,41.1404468 L76.7763032,6.74716743 C80.2134922,4.76194182 83,6.86905666 83,11.4533791 L83,158.964291 C83,163.549015 80.2134922,168.874328 76.7763032,170.859553 Z" id="Path" fill="#7662BD" fill-rule="nonzero"></path>
                            <polygon id="Path" fill="#FFFFFF" fill-rule="nonzero" points="17 51.9304406 77 18 77 152.069559 17 186"></polygon>
                            <polygon id="Path" fill="#594A8E" fill-rule="nonzero" points="46 174.569355 57 168 57 179.430645 46 186"></polygon>
                            <polygon id="Path" fill="#DEA861" fill-rule="nonzero" points="29 76.8025389 65 56 65 92.1974611 29 113"></polygon>
                            <polygon id="Path" fill="#D7D1EB" fill-rule="nonzero" points="35 118.0778 60 104 60 110.921807 35 125"></polygon>
                            <polygon id="Path" fill="#F7E041" fill-rule="nonzero" points="40 135.539366 57 126 57 135.460249 40 145"></polygon>
                            <polygon id="Path" fill="#CC8241" fill-rule="nonzero" points="44 69.2778886 51 65 51 76.7221114 44 81"></polygon>
                            <g id="Group" transform="translate(32.000000, 89.000000)" fill="#8B451C" fill-rule="nonzero">
                                <polygon id="Path" points="0.0804 7.567125 11.8076 0.37315 11.8076 2.717875 0.0804 9.91185"></polygon>
                                <polygon id="Path" points="0.0804 11.752525 8.984 6.29085 8.984 8.07075 0.0804 13.532425"></polygon>
                                <polygon id="Path" points="0.0804 14.983375 8.984 9.521275 8.984 11.3016 0.0804 16.763275"></polygon>
                            </g>
                            <path d="M133,175.56218 L133,130 L61,133.135824 L61,178.698005 C61,179.741791 61.5086461,180.785984 62.5259384,181.382549 L91.048081,198.107891 C93.0766721,199.29737 95.5759506,199.29737 97.6045417,198.107891 L131.474461,178.246725 C132.491354,177.65016 133,176.605967 133,175.56218 L133,175.56218 Z" id="Path" fill="url(#linearGradient-5)" fill-rule="nonzero"></path>
                            <path d="M62.5259873,130.876919 L96.3958832,110.897424 C98.4244729,109.700859 100.92375,109.700859 102.95194,110.897424 L131.474063,127.722412 C133.508646,128.922652 133.508646,131.922842 131.474063,133.123081 L97.6041667,153.102576 C95.575577,154.299141 93.0763002,154.299141 91.0477105,153.102576 L62.5255877,136.277588 C60.4914042,135.077348 60.4914042,132.077158 62.5259873,130.876919 Z" id="Path" fill="url(#linearGradient-6)" fill-rule="nonzero"></path>
                            <polygon id="Path" fill="#DEA861" fill-rule="nonzero" points="72 123.660472 109.146622 145 119 139.339528 81.8533778 118"></polygon>
                            <g id="Group" transform="translate(76.000000, 122.000000)" fill="#CC8241" fill-rule="nonzero">
                                <polygon id="Path" points="2.07333019 0.130731707 39.0062736 20.6435122 37.0870943 21.7096585 0.154556604 1.19687805"></polygon>
                                <polygon id="Path" points="33.1509717 23.8985366 33.1509717 31.6819512 42.9476698 26.2407805 42.9476698 18.4573659"></polygon>
                            </g>
                        </g>
                    </g>
                </g>
            </g>
        </g>
    </g>
</svg>