<?xml version="1.0" encoding="UTF-8"?>
<svg width="375px" height="277px" viewBox="0 0 375 277" version="1.1" xmlns="http://www.w3.org/2000/svg" xmlns:xlink="http://www.w3.org/1999/xlink">
    <title>view-2-icon</title>
    <defs>
        <rect id="path-1" x="0" y="0" width="375" height="277"></rect>
        <linearGradient x1="50.2578368%" y1="54.889299%" x2="46.4023722%" y2="168.899579%" id="linearGradient-3">
            <stop stop-color="#CBE2F7" offset="0%"></stop>
            <stop stop-color="#CDC4EB" offset="100%"></stop>
        </linearGradient>
        <linearGradient x1="52.1131696%" y1="41.3682924%" x2="43.0280243%" y2="18.8195125%" id="linearGradient-4">
            <stop stop-color="#43386B" offset="0%"></stop>
            <stop stop-color="#7662BD" offset="100%"></stop>
        </linearGradient>
        <linearGradient x1="50%" y1="114.115598%" x2="50%" y2="-10.0187033%" id="linearGradient-5">
            <stop stop-color="#43386B" offset="0%"></stop>
            <stop stop-color="#7662BD" offset="100%"></stop>
        </linearGradient>
        <linearGradient x1="0%" y1="49.9995614%" x2="100%" y2="49.9995614%" id="linearGradient-6">
            <stop stop-color="#C5BAEB" offset="0%"></stop>
            <stop stop-color="#D7D1EB" offset="100%"></stop>
        </linearGradient>
        <linearGradient x1="38.2937937%" y1="49.9994035%" x2="52.0301564%" y2="49.9994035%" id="linearGradient-7">
            <stop stop-color="#CC8241" offset="0%"></stop>
            <stop stop-color="#DEA861" offset="100%"></stop>
        </linearGradient>
        <linearGradient x1="22.1595935%" y1="40.3178706%" x2="73.6032356%" y2="58.2096211%" id="linearGradient-8">
            <stop stop-color="#DEA861" offset="0%"></stop>
            <stop stop-color="#EBCBA0" offset="100%"></stop>
        </linearGradient>
        <linearGradient x1="62.2566938%" y1="66.141509%" x2="52.6720717%" y2="53.6704381%" id="linearGradient-9">
            <stop stop-color="#5D3645" offset="0%"></stop>
            <stop stop-color="#966D7D" offset="100%"></stop>
        </linearGradient>
        <linearGradient x1="56.079787%" y1="72.9439883%" x2="50.7541767%" y2="56.8928041%" id="linearGradient-10">
            <stop stop-color="#AB2C37" offset="0%"></stop>
            <stop stop-color="#FF4757" offset="100%"></stop>
        </linearGradient>
        <linearGradient x1="52.2002348%" y1="41.3682924%" x2="42.74077%" y2="18.8195125%" id="linearGradient-11">
            <stop stop-color="#43386B" offset="0%"></stop>
            <stop stop-color="#7662BD" offset="100%"></stop>
        </linearGradient>
        <linearGradient x1="50%" y1="114.116356%" x2="50%" y2="-10.0179449%" id="linearGradient-12">
            <stop stop-color="#43386B" offset="0%"></stop>
            <stop stop-color="#7662BD" offset="100%"></stop>
        </linearGradient>
        <linearGradient x1="61.9893235%" y1="75.4453467%" x2="42.8401034%" y2="44.2695185%" id="linearGradient-13">
            <stop stop-color="#C5BAEB" offset="0%"></stop>
            <stop stop-color="#D7D1EB" offset="100%"></stop>
        </linearGradient>
        <linearGradient x1="56.9960901%" y1="62.9981326%" x2="49.0934758%" y2="38.9075309%" id="linearGradient-14">
            <stop stop-color="#AB2C37" offset="0%"></stop>
            <stop stop-color="#FF4757" offset="100%"></stop>
        </linearGradient>
        <linearGradient x1="0.00107586001%" y1="50.0004439%" x2="100.000772%" y2="50.0004439%" id="linearGradient-15">
            <stop stop-color="#AB2C37" offset="0%"></stop>
            <stop stop-color="#FF4757" offset="100%"></stop>
        </linearGradient>
        <linearGradient x1="50%" y1="98.771802%" x2="50%" y2="-34.5536878%" id="linearGradient-16">
            <stop stop-color="#C5BAEB" offset="0%"></stop>
            <stop stop-color="#D7D1EB" offset="100%"></stop>
        </linearGradient>
        <linearGradient x1="51.8407483%" y1="44.9435129%" x2="43.8973498%" y2="31.7235673%" id="linearGradient-17">
            <stop stop-color="#43386B" offset="0%"></stop>
            <stop stop-color="#7662BD" offset="100%"></stop>
        </linearGradient>
        <linearGradient x1="50%" y1="114.111122%" x2="50%" y2="-10.0216587%" id="linearGradient-18">
            <stop stop-color="#43386B" offset="0%"></stop>
            <stop stop-color="#7662BD" offset="100%"></stop>
        </linearGradient>
        <linearGradient x1="52.143172%" y1="42.0488471%" x2="42.9390138%" y2="21.2836404%" id="linearGradient-19">
            <stop stop-color="#AB2C37" offset="0%"></stop>
            <stop stop-color="#FF4757" offset="100%"></stop>
        </linearGradient>
        <linearGradient x1="48.7813006%" y1="39.1874631%" x2="59.4823722%" y2="18.4229534%" id="linearGradient-20">
            <stop stop-color="#AB2C37" offset="0%"></stop>
            <stop stop-color="#FF4757" offset="100%"></stop>
        </linearGradient>
        <linearGradient x1="52.1412584%" y1="42.0488471%" x2="42.9371002%" y2="21.2836404%" id="linearGradient-21">
            <stop stop-color="#AB2C37" offset="0%"></stop>
            <stop stop-color="#FF4757" offset="100%"></stop>
        </linearGradient>
        <linearGradient x1="51.8383499%" y1="44.9412077%" x2="43.8973498%" y2="31.7212621%" id="linearGradient-22">
            <stop stop-color="#43386B" offset="0%"></stop>
            <stop stop-color="#7662BD" offset="100%"></stop>
        </linearGradient>
        <linearGradient x1="50.0062298%" y1="114.111122%" x2="50.0062298%" y2="-10.0216587%" id="linearGradient-23">
            <stop stop-color="#43386B" offset="0%"></stop>
            <stop stop-color="#7662BD" offset="100%"></stop>
        </linearGradient>
    </defs>
    <g id="Welcome" stroke="none" stroke-width="1" fill="none" fill-rule="evenodd">
        <g id="View-2" transform="translate(0.000000, -195.000000)">
            <g id="view-2-icon" transform="translate(0.000000, 195.000000)">
                <mask id="mask-2" fill="white">
                    <use xlink:href="#path-1"></use>
                </mask>
                <use id="Mask" fill="#D8D8D8" opacity="0" xlink:href="#path-1"></use>
                <g mask="url(#mask-2)">
                    <g transform="translate(-40.000000, -38.000000)">
                        <g id="Rectangle" transform="translate(227.842074, 227.056124) rotate(-13.000000) translate(-227.842074, -227.056124) translate(38.342074, 38.556124)">
                            <g id="Mask" transform="translate(189.230466, 188.413222) rotate(-28.000000) translate(-189.230466, -188.413222) translate(48.730466, 50.413222)" fill="url(#linearGradient-3)" stroke="#ECF5FB" stroke-width="1.287">
                                <g id="Group-2" transform="translate(140.475898, 137.936381) rotate(14.000000) translate(-140.475898, -137.936381) translate(23.975898, 24.936381)">
                                    <path d="M166.55485,-6.75819192 C170.756352,-7.04409003 174.394109,-3.86986552 174.680007,0.331636947 C174.709746,0.768664473 174.70177,1.20744178 174.656169,1.64309983 L154.634035,192.927065 C154.088482,198.139074 149.873495,202.203563 144.645102,202.559338 C140.443599,202.845236 136.805843,199.671011 136.519944,195.469509 C136.490206,195.032481 136.498182,194.593704 136.543783,194.158046 L156.565917,2.87408063 C157.11147,-2.33792867 161.326457,-6.40241736 166.55485,-6.75819192 Z" id="Rectangle" transform="translate(155.599976, 97.900573) rotate(-35.000000) translate(-155.599976, -97.900573) "></path>
                                    <path d="M139.333118,23.1526783 C143.534621,22.8667802 147.172378,26.0410047 147.458276,30.2425072 C147.488014,30.6795347 147.480038,31.118312 147.434437,31.55397 L127.412304,222.837935 C126.866751,228.049945 122.651763,232.114433 117.42337,232.470208 C113.221868,232.756106 109.584111,229.581882 109.298213,225.380379 C109.268475,224.943352 109.27645,224.504574 109.322052,224.068916 L129.344185,32.7849508 C129.889738,27.5729415 134.104725,23.5084529 139.333118,23.1526783 Z" id="Rectangle-Copy" transform="translate(128.378244, 127.811443) rotate(-35.000000) translate(-128.378244, -127.811443) "></path>
                                    <path d="M88.023858,7.11024053 C92.2253605,6.82434242 95.8631174,9.99856692 96.1490155,14.2000694 C96.1787538,14.6370969 96.170778,15.0758742 96.1251766,15.5115323 L76.1030433,206.795498 C75.5574903,212.007507 71.342503,216.071996 66.11411,216.42777 C61.9126075,216.713668 58.2748506,213.539444 57.9889525,209.337941 C57.9592142,208.900914 57.96719,208.462136 58.0127913,208.026478 L78.0349246,16.7425131 C78.5804777,11.5305038 82.795465,7.46601509 88.023858,7.11024053 Z" id="Rectangle-Copy-2" transform="translate(77.068984, 111.769005) rotate(-35.000000) translate(-77.068984, -111.769005) "></path>
                                </g>
                            </g>
                        </g>
                        <g id="food-delivery" transform="translate(144.000000, 49.000000)">
                            <g id="Group" transform="translate(16.000000, 100.000000)" fill-rule="nonzero">
                                <path d="M6.56896552,8.10421622 L17.9599138,1.39848649 L17.9603448,1.39978378 C21.3474138,-0.400864865 25.6978448,-0.144432432 30.4443966,2.60497297 C41.2439655,8.86054054 49.9987069,25.6423784 49.9987069,40.0890811 C49.9987069,48.0311351 47.3487069,53.6064865 43.1715517,55.9844324 L43.174569,55.9909189 L32.5241379,62.2819459 L6.56896552,8.10421622 Z" id="Path" fill="url(#linearGradient-4)"></path>
                                <path d="M0.0409482759,23.8287568 C0.0409482759,9.38248649 8.79568966,2.74248649 19.5956897,8.99762162 C30.3952586,15.2531892 39.150431,32.035027 39.150431,46.4817297 C39.150431,60.928 30.3956897,67.568 19.5956897,61.3124324 C8.79612069,55.0568649 0.0409482759,38.275027 0.0409482759,23.8287568 Z" id="Path" fill="url(#linearGradient-5)"></path>
                                <ellipse id="Oval" fill="#E9E5F6" transform="translate(19.647014, 35.105391) rotate(-23.078221) translate(-19.647014, -35.105391) " cx="19.6470138" cy="35.1053907" rx="10.579769" ry="18.7428571"></ellipse>
                                <path d="M13.3931034,31.5623784 C13.3931034,26.9798919 16.1702586,24.8739459 19.5956897,26.8579459 C23.0211207,28.8423784 25.7982759,34.1651892 25.7982759,38.7476757 C25.7982759,43.3297297 23.0211207,45.4361081 19.5956897,43.4516757 C16.1702586,41.4676757 13.3931034,36.1448649 13.3931034,31.5623784 L13.3931034,31.5623784 Z" id="Path" fill="#7662BD"></path>
                            </g>
                            <path d="M88.9279864,180 L55.3324804,160.372945 C50.8891732,157.794338 50.8891732,151.347169 55.3324804,148.768562 L94.2015041,126.210189 C99.2793232,123.26327 105.535213,123.26327 110.613033,126.210189 L146,146.876746 L88.9279864,180 Z" id="Path" fill="#AB2C37" fill-rule="nonzero"></path>
                            <path d="M99.0374888,125.734738 L99.0374888,114.484158 C104.998688,111.042237 108.671024,104.681698 108.671024,97.7978563 C108.671024,95.9180976 107.667952,94.1812143 106.040488,93.2413349 L59.6569128,66.4599369 C56.5465724,64.6640959 52.7515956,64.5164867 49.5108687,66.0644473 C48.0585446,66.7581678 46.6832474,67.562918 45.3798134,68.4524467 L26,79.6587008 L75.5270504,139.328991 L103.489131,171 L127,157.405747 L127,142.014361 L99.0374888,125.734738 Z" id="Path" fill="#A996EB" fill-rule="nonzero"></path>
                            <polygon id="Path" fill="#7662BD" fill-rule="nonzero" points="99 113 75 126.679155 75 138 99 124.320845"></polygon>
                            <path d="M102,171 L7,116.124543 L7,108.069128 C7,96.1100424 13.8832865,85.2143869 24.695464,80.0596235 C27.9284707,78.5184646 31.7144071,78.6658537 34.817338,80.4533753 L81.0904182,107.117097 C82.7144342,108.052846 83.7146872,109.782098 83.7146872,111.653597 C83.7146872,118.507191 80.0515287,124.839782 74.1045306,128.266579 L74.1045306,139.467725 L102,155.675815 L102,171 Z" id="Path" fill="url(#linearGradient-6)" fill-rule="nonzero"></path>
                            <g id="Group" transform="translate(5.000000, 0.000000)" fill-rule="nonzero">
                                <path d="M34.027503,87.6657734 C32.4884556,87.6657734 30.970574,87.2578522 29.637568,86.4853596 L3.03662722,71.0723547 C1.31140828,70.0727094 0.281201183,68.2823645 0.281201183,66.2830739 C0.281201183,64.2837833 1.31140828,62.4934384 3.03662722,61.4937931 L34.6253254,43.1910936 C37.2909053,41.6474089 40.7387515,41.6469754 43.4038994,43.1910936 L70.0048402,58.6040985 C71.7304911,59.6037438 72.7602663,61.3945222 72.7602663,63.3938128 C72.7602663,65.3931034 71.7300592,67.1830148 70.0048402,68.1826601 L38.4170059,86.4853596 C37.084,87.2578522 35.5661183,87.6657734 34.027503,87.6657734 Z M39.0143964,47.3587389 C38.4096627,47.3587389 37.813568,47.519133 37.2896095,47.8225813 L5.70091124,66.1252808 C5.66505917,66.1460887 5.60976923,66.1781675 5.60976923,66.2830739 C5.60976923,66.3884138 5.66505917,66.4200591 5.70091124,66.440867 L32.3018521,81.8538719 C33.3493373,82.460335 34.7039408,82.4607685 35.7522899,81.8538719 L67.3401243,63.5511724 C67.3759763,63.5303645 67.4312663,63.4982857 67.4312663,63.3933793 C67.4312663,63.2880394 67.3759763,63.2559606 67.3401243,63.2351527 L40.7391834,47.8221478 C40.2156568,47.519133 39.6191302,47.3587389 39.0143964,47.3587389 Z" id="Shape" fill="#594A8E"></path>
                                <path d="M70.0955503,60.6952906 L70.0955503,18.7084532 L2.94591716,21.5985813 L2.94591716,63.5854187 C2.94591716,64.5473498 3.42020118,65.5097143 4.36876923,66.0593892 L30.9697101,81.4723941 C32.8616627,82.5687094 35.1924793,82.5687094 37.084432,81.4723941 L68.6726982,63.1696946 C69.6212663,62.6195862 70.0955503,61.6572217 70.0955503,60.6952906 L70.0955503,60.6952906 Z" id="Path" fill="url(#linearGradient-7)"></path>
                                <path d="M4.36920118,19.1246108 L35.9574675,0.82191133 C37.8494201,-0.274403941 40.1802367,-0.274403941 42.0721893,0.82191133 L68.6731302,16.2349163 C70.5706982,17.334266 70.5706982,20.0826404 68.6731302,21.1819901 L37.0848639,39.4846897 C35.1929112,40.5810049 32.8620947,40.5810049 30.970142,39.4846897 L4.36920118,24.0721182 C2.47163314,22.9727685 2.47163314,20.2243941 4.36920118,19.1246108 Z" id="Path" fill="url(#linearGradient-8)"></path>
                                <polygon id="Path" fill="#DEA861" points="14.6112308 13.1904631 48.5385207 32.8482759 57.5382544 27.633734 23.6109645 7.97592118"></polygon>
                                <g transform="translate(18.142012, 9.970443)" fill="#CC8241" id="Path">
                                    <polygon points="1.84832544 0.100571429 35.7756154 19.7583842 34.0123846 20.7797044 0.0855266272 1.12189163"></polygon>
                                    <polygon points="30.3965089 22.8778325 30.3965089 30.3365911 39.3962426 25.1220493 39.3962426 17.6632906"></polygon>
                                </g>
                            </g>
                            <g id="Group" transform="translate(50.000000, 66.000000)" fill-rule="nonzero">
                                <path d="M55.5709538,27.3519588 C55.5709538,22.1985155 52.8355692,17.4369278 48.3960615,14.8602062 L23.9848,0.693649485 C22.5972923,-0.111278351 21.0090462,0.162804124 19.9416,1.08117526 L19.9364308,1.07684536 L2.77975385,11.2611959 C2.33907692,11.4170722 1.93243077,11.6578144 1.58393846,11.970866 L1.56412308,11.9825567 L1.56713846,11.9851546 C0.876184615,12.6142887 0.420430769,13.5201031 0.420430769,14.5878557 C0.420430769,19.741299 3.15581538,24.5028866 7.59575385,27.0796082 L32.0070154,41.2461649 C32.5773538,41.5769691 35.0607385,41.4355316 35.7094769,41.1205979 C42.0753846,38.0307835 53.6320615,30.4993608 53.6320615,30.4993608 C53.7535385,30.4378763 53.8711385,30.3694639 53.9852923,30.2945567 L54.0546462,30.2542887 L54.0507692,30.2508247 C54.9476308,29.6307835 55.5709538,28.602 55.5709538,27.3519588 L55.5709538,27.3519588 Z" id="Path" fill="url(#linearGradient-9)"></path>
                                <path d="M32.0074462,41.2461649 L7.59618462,27.0796082 C3.15624615,24.5028866 0.420861538,19.741299 0.420861538,14.5878557 C0.420861538,11.8717113 3.34578462,10.1743918 5.68615385,11.5322474 L30.0974154,25.6988041 C34.5373538,28.2755258 37.2723077,33.0371134 37.2723077,38.1905567 C37.2723077,40.906701 34.3473846,42.6044536 32.0074462,41.2461649 L32.0074462,41.2461649 Z" id="Path" fill="#5D3645"></path>
                            </g>
                            <path d="M130.841555,74.8484266 L113.703249,84.876382 C101.56045,91.981645 94.0869351,105.066893 94.0869351,119.222887 L94.0869351,170.139971 C94.0869351,174.372313 92.0111256,177.876255 89,180 L145.844386,146.747612 C148.892856,144.62906 151,141.103478 151,136.838676 L151,86.5530457 C151,76.1221544 139.789513,69.6128557 130.841555,74.8484266 L130.841555,74.8484266 Z" id="Path" fill="url(#linearGradient-10)" fill-rule="nonzero"></path>
                            <g id="Group" transform="translate(111.000000, 158.000000)" fill-rule="nonzero">
                                <path d="M6.87061538,7.93371429 L18.3900769,1.28785714 L18.3905128,1.28914286 C21.8157949,-0.495428571 26.2153077,-0.241285714 31.0154103,2.48357143 C41.9368205,8.68328571 50.7903333,25.3152857 50.7903333,39.633 C50.7903333,47.5045714 48.1108718,53.0297143 43.8861538,55.3864286 L43.8892051,55.3928571 L33.1186154,61.6277143 L6.87061538,7.93371429 Z" id="Path" fill="url(#linearGradient-11)"></path>
                                <path d="M0.268948718,23.5174286 C0.268948718,9.20014286 9.12246154,2.61942857 20.0443077,8.81871429 C30.9657179,15.0184286 39.8196667,31.6504286 39.8196667,45.9681429 C39.8196667,60.2854286 30.9661538,66.8661429 20.0443077,60.6664286 C9.12289744,54.4671429 0.268948718,37.8351429 0.268948718,23.5174286 Z" id="Path" fill="url(#linearGradient-12)"></path>
                                <ellipse id="Oval" fill="#E9E5F6" transform="translate(20.106878, 34.641391) rotate(-23.078221) translate(-20.106878, -34.641391) " cx="20.1068782" cy="34.6413909" rx="10.6667904" ry="18.6336668"></ellipse>
                                <path d="M13.7717436,31.1824286 C13.7717436,26.6412857 16.5802308,24.5537143 20.0443077,26.52 C23.5083846,28.4867143 26.3168718,33.762 26.3168718,38.3035714 C26.3168718,42.8451429 23.5083846,44.9322857 20.0443077,42.966 C16.5802308,40.9992857 13.7717436,35.7235714 13.7717436,31.1824286 Z" id="Path" fill="#7662BD"></path>
                            </g>
                            <path d="M143.836166,153.825803 C138.103111,150.524154 132.848895,150.216098 128.757945,152.378546 L128.757511,152.376816 L115,160.429967 L117.657469,165.945118 C117.117474,168.271113 116.823839,170.874012 116.823839,173.738239 C116.823839,174.89042 116.873718,176.055148 116.964367,177.227664 L153.882242,200 L167,192.445709 C164.855201,176.798462 155.30141,160.428669 143.836166,153.825803 L143.836166,153.825803 Z" id="Path" fill="url(#linearGradient-13)" fill-rule="nonzero"></path>
                            <path d="M126.814067,185.542587 L154,201 C151.810933,185.512538 142.227769,169.33911 130.735384,162.804834 C117.626697,155.35193 107,163.263289 107,180.475539 C107,182.143235 107.102,183.836686 107.294229,185.542587 L126.814067,185.542587 Z" id="Path" fill="#A996EB" fill-rule="nonzero"></path>
                            <path d="M56.5497313,108.126791 L46.8687037,102.540416 C41.0338515,99.1737668 34.1328559,98.1596592 27.5752382,99.7067411 C24.6554543,100.395237 21.8972852,101.572151 19.4044731,103.165504 L8.71688951,109.232155 L10.8213116,111.62754 L7,116.378466 L23.2116381,125.732506 L43.6509827,149 L53.7229724,143.337792 L61.5855119,132.934084 C63.8013925,130.002297 65,126.428285 65,122.754019 L65,122.753591 C65,116.719929 61.7784208,111.144265 56.5497313,108.126791 L56.5497313,108.126791 Z" id="Path" fill="url(#linearGradient-14)" fill-rule="nonzero"></path>
                            <path d="M44.6317532,148 L52.5578923,137.675487 C54.791697,134.766018 56,131.219212 56,127.572916 C56,121.584333 52.7527938,116.051112 47.4813776,113.057033 L37.7220407,107.513608 C31.8399908,104.172586 24.8831734,103.166198 18.2725116,104.701078 C12.4950429,106.042504 7.33814759,109.242367 3.61902908,113.794285 L1.06845536,116.915917 C-0.791103899,119.191876 -0.149787158,122.56351 2.42066565,124.023559 L44.6317532,148 Z" id="Path" fill="url(#linearGradient-15)" fill-rule="nonzero"></path>
                            <polygon id="Path" fill="#A996EB" fill-rule="nonzero" points="123 152.979976 123 80 128 83.0200235 128 156"></polygon>
                            <polygon id="Path" fill="url(#linearGradient-16)" fill-rule="nonzero" points="127 83.0175104 132 80 132 152.98249 127 156"></polygon>
                            <g id="Group" transform="translate(95.000000, 51.000000)" fill-rule="nonzero">
                                <g transform="translate(43.838828, 0.000000)" id="Path">
                                    <path d="M1.41186813,7.6690625 L13.680293,0.46090831 L13.680293,0.46134272 C14.2777045,0.141183036 15.0453138,0.186796016 15.8825495,0.675506525 C17.7873895,1.78716003 19.3320635,4.76981456 19.3320635,7.33717376 C19.3320635,8.74856971 18.8648791,9.73945742 18.1277851,10.1621377 L18.1282149,10.1634409 L5.99044689,17.2977455 L1.41186813,7.6690625 Z" fill="url(#linearGradient-17)"></path>
                                    <path d="M0.260454212,10.4636178 C0.260454212,7.89625859 1.80469841,6.71640282 3.70996825,7.82805632 C5.6148083,8.93970982 7.1594823,11.9223644 7.1594823,14.4897236 C7.1594823,17.0570828 5.6152381,18.2369385 3.70996825,17.125285 C1.80469841,16.0131971 0.260454212,13.030977 0.260454212,10.4636178 Z" fill="url(#linearGradient-18)"></path>
                                </g>
                                <path d="M41.5312723,7.43057177 L46.8233065,4.32280735 L46.8233065,4.32324176 C47.6936361,3.85712054 48.8115263,3.92358516 50.0308474,4.63514766 C52.8055873,6.25419128 55.0551209,10.5982847 55.0551209,14.3381147 C55.0551209,16.3941741 54.3743297,17.8372819 53.301138,18.4524056 L53.3019976,18.4541432 L48.2003614,21.4546085 L41.5312723,7.43057177 Z" id="Path" fill="url(#linearGradient-19)"></path>
                                <g transform="translate(12.463980, 2.606456)">
                                    <path d="M34.9859634,7.55568166 L23.3544908,0.72459478 L23.3540611,0.725463599 C21.4414847,-0.298873626 18.9843614,-0.152912088 16.303746,1.41139595 C10.2049915,4.97051168 0.424634921,10.2055786 0.424634921,18.4250378 C0.424634921,22.9437637 1.92117216,26.1158207 4.28030281,27.4685714 L9.11460806,31.785297 L20.3278926,38.3804997 L34.9859634,7.55568166 Z" id="Path" fill="url(#linearGradient-20)"></path>
                                    <ellipse id="Oval" fill="#D7D1EB" transform="translate(27.689790, 23.006329) rotate(-66.921779) translate(-27.689790, -23.006329) " cx="27.6897899" cy="23.0063291" rx="17.1078814" ry="9.60760987"></ellipse>
                                    <ellipse id="Oval" fill="#E9E5F6" transform="translate(27.690220, 23.006764) rotate(-66.921779) translate(-27.690220, -23.006764) " cx="27.6902197" cy="23.0067635" rx="12.5547432" ry="7.05071817"></ellipse>
                                </g>
                                <g transform="translate(9.025641, 20.417239)">
                                    <path d="M3.86340415,3.49525755 L9.15543834,0.387493132 L9.15543834,0.387927541 C10.025768,-0.0781936813 11.1432283,-0.0117290522 12.3629792,0.699833448 C15.1377192,2.31887706 17.3872527,6.66297047 17.3872527,10.4028005 C17.3872527,12.4588599 16.7064615,13.9019677 15.6332698,14.5170913 L15.6341294,14.518829 L10.5324933,17.5192943 L3.86340415,3.49525755 Z" id="Path" fill="url(#linearGradient-21)"></path>
                                    <ellipse id="Oval" fill="#FF7A85" transform="translate(7.225069, 10.423047) rotate(-23.078221) translate(-7.225069, -10.423047) " cx="7.22506862" cy="10.4230474" rx="4.37102605" ry="7.78342806"></ellipse>
                                </g>
                                <g transform="translate(0.000000, 26.064560)" id="Path">
                                    <path d="M1.55928694,7.42318681 L13.8277118,0.215467033 L13.8277118,0.215901442 C14.4251233,-0.104258242 15.1927326,-0.058645261 16.0299683,0.430065247 C17.9348083,1.54171875 19.4794823,4.52437328 19.4794823,7.09173249 C19.4794823,8.50312843 19.0122979,9.49401614 18.2752039,9.91669643 L18.2756337,9.91799966 L6.13786569,17.0523043 L1.55928694,7.42318681 Z" fill="url(#linearGradient-22)"></path>
                                    <path d="M0.407443223,10.2177421 C0.407443223,7.6503829 1.95168742,6.47052713 3.85695726,7.58218063 C5.76179731,8.69383413 7.30647131,11.6764887 7.30647131,14.2438479 C7.30647131,16.8112071 5.76222711,17.9910628 3.85695726,16.8794093 C1.95211722,15.7673214 0.407443223,12.7851013 0.407443223,10.2177421 Z" fill="url(#linearGradient-23)"></path>
                                </g>
                            </g>
                        </g>
                    </g>
                </g>
            </g>
        </g>
    </g>
</svg>