<?xml version="1.0" encoding="UTF-8"?>
<svg width="375px" height="290px" viewBox="0 0 375 290" version="1.1" xmlns="http://www.w3.org/2000/svg" xmlns:xlink="http://www.w3.org/1999/xlink">
    <title>view-1-icon</title>
    <defs>
        <rect id="path-1" x="0" y="0" width="375" height="290"></rect>
        <linearGradient x1="64.0804411%" y1="-39.5431207%" x2="50%" y2="100%" id="linearGradient-3">
            <stop stop-color="#E7F3FC" offset="0%"></stop>
            <stop stop-color="#CBE2F7" offset="100%"></stop>
        </linearGradient>
        <linearGradient x1="50%" y1="0%" x2="50%" y2="100%" id="linearGradient-4">
            <stop stop-color="#E7F3FC" offset="0%"></stop>
            <stop stop-color="#CBE2F7" offset="100%"></stop>
        </linearGradient>
        <linearGradient x1="49.576163%" y1="33.9026591%" x2="51.0943712%" y2="27.2472923%" id="linearGradient-5">
            <stop stop-color="#43386B" offset="0%"></stop>
            <stop stop-color="#A996EB" offset="100%"></stop>
        </linearGradient>
        <linearGradient x1="38.2933028%" y1="50.0002206%" x2="52.0305667%" y2="50.0002206%" id="linearGradient-6">
            <stop stop-color="#CC8241" offset="0%"></stop>
            <stop stop-color="#DEA861" offset="100%"></stop>
        </linearGradient>
        <linearGradient x1="22.1598134%" y1="39.9638588%" x2="73.6037609%" y2="58.5087517%" id="linearGradient-7">
            <stop stop-color="#DEA861" offset="0%"></stop>
            <stop stop-color="#EBCBA0" offset="100%"></stop>
        </linearGradient>
    </defs>
    <g id="Welcome" stroke="none" stroke-width="1" fill="none" fill-rule="evenodd">
        <g id="View-1" transform="translate(0.000000, -203.000000)">
            <g id="view-1-icon" transform="translate(0.000000, 203.000000)">
                <mask id="mask-2" fill="white">
                    <use xlink:href="#path-1"></use>
                </mask>
                <g id="Mask" opacity="0"></g>
                <g mask="url(#mask-2)">
                    <g transform="translate(64.000000, 10.000000)">
                        <g id="Group-2" stroke-linecap="round">
                            <path d="M24,241 C84.0090811,228.348231 128.047214,205.507677 156.114399,172.478338 C184.181584,139.448999 200.476784,91.2895527 205,28" id="Path-2" stroke="url(#linearGradient-3)" stroke-width="17"></path>
                            <path d="M51,265 C111.009081,252.348231 155.047214,229.507677 183.114399,196.478338 C211.181584,163.448999 227.476784,115.289553 232,52" id="Path-2-Copy" stroke="url(#linearGradient-3)" stroke-width="17"></path>
                            <path d="M0,213 C60.0090811,200.348231 104.047214,177.507677 132.114399,144.478338 C160.181584,111.448999 176.476784,63.2895527 181,0" id="Path-2-Copy-2" stroke="url(#linearGradient-4)" stroke-width="17"></path>
                        </g>
                        <g id="mobile-app" transform="translate(57.000000, 12.000000)">
                            <path d="M81,6.46764108 L70.387497,0.452316951 L70.3846627,0.460375527 C69.2776584,-0.210098004 67.8240572,-0.175043198 66.2259058,0.74282862 L6.26627609,35.1924356 C2.80557166,37.1804863 0,42.5148608 0,47.1066374 L0,194.85781 C0,197.513514 0.941803967,199.331931 2.40309826,200.014493 L2.40107374,200.019731 L12.954056,206 L81,6.46764108 Z" id="Path" fill="url(#linearGradient-5)" fill-rule="nonzero"></path>
                            <path d="M76.7763032,170.859553 L17.2236968,205.252833 C13.7865078,207.238058 11,205.130943 11,200.546621 L11,53.0353072 C11,48.4509848 13.7865078,43.1256724 17.2236968,41.1404468 L76.7763032,6.74716743 C80.2134922,4.76194182 83,6.86905666 83,11.4533791 L83,158.964291 C83,163.549015 80.2134922,168.874328 76.7763032,170.859553 Z" id="Path" fill="#7662BD" fill-rule="nonzero"></path>
                            <polygon id="Path" fill="#FFFFFF" fill-rule="nonzero" points="17 51.9304406 77 18 77 152.069559 17 186"></polygon>
                            <polygon id="Path" fill="#594A8E" fill-rule="nonzero" points="46 174.569355 57 168 57 179.430645 46 186"></polygon>
                            <polygon id="Path" fill="#DEA861" fill-rule="nonzero" points="29 76.8025389 65 56 65 92.1974611 29 113"></polygon>
                            <polygon id="Path" fill="#D7D1EB" fill-rule="nonzero" points="35 118.0778 60 104 60 110.921807 35 125"></polygon>
                            <polygon id="Path" fill="#F7E041" fill-rule="nonzero" points="40 135.539366 57 126 57 135.460249 40 145"></polygon>
                            <polygon id="Path" fill="#CC8241" fill-rule="nonzero" points="44 69.2778886 51 65 51 76.7221114 44 81"></polygon>
                            <g id="Group" transform="translate(32.000000, 89.000000)" fill="#8B451C" fill-rule="nonzero">
                                <polygon id="Path" points="0.0804 7.567125 11.8076 0.37315 11.8076 2.717875 0.0804 9.91185"></polygon>
                                <polygon id="Path" points="0.0804 11.752525 8.984 6.29085 8.984 8.07075 0.0804 13.532425"></polygon>
                                <polygon id="Path" points="0.0804 14.983375 8.984 9.521275 8.984 11.3016 0.0804 16.763275"></polygon>
                            </g>
                            <path d="M133,175.56218 L133,130 L61,133.135824 L61,178.698005 C61,179.741791 61.5086461,180.785984 62.5259384,181.382549 L91.048081,198.107891 C93.0766721,199.29737 95.5759506,199.29737 97.6045417,198.107891 L131.474461,178.246725 C132.491354,177.65016 133,176.605967 133,175.56218 L133,175.56218 Z" id="Path" fill="url(#linearGradient-6)" fill-rule="nonzero"></path>
                            <path d="M62.5259873,130.876919 L96.3958832,110.897424 C98.4244729,109.700859 100.92375,109.700859 102.95194,110.897424 L131.474063,127.722412 C133.508646,128.922652 133.508646,131.922842 131.474063,133.123081 L97.6041667,153.102576 C95.575577,154.299141 93.0763002,154.299141 91.0477105,153.102576 L62.5255877,136.277588 C60.4914042,135.077348 60.4914042,132.077158 62.5259873,130.876919 Z" id="Path" fill="url(#linearGradient-7)" fill-rule="nonzero"></path>
                            <polygon id="Path" fill="#DEA861" fill-rule="nonzero" points="72 123.660472 109.146622 145 119 139.339528 81.8533778 118"></polygon>
                            <g id="Group" transform="translate(76.000000, 122.000000)" fill="#CC8241" fill-rule="nonzero">
                                <polygon id="Path" points="2.07333019 0.130731707 39.0062736 20.6435122 37.0870943 21.7096585 0.154556604 1.19687805"></polygon>
                                <polygon id="Path" points="33.1509717 23.8985366 33.1509717 31.6819512 42.9476698 26.2407805 42.9476698 18.4573659"></polygon>
                            </g>
                        </g>
                    </g>
                </g>
            </g>
        </g>
    </g>
</svg>