<?xml version="1.0" encoding="UTF-8"?>
<svg width="202px" height="48px" viewBox="0 0 202 48" version="1.1" xmlns="http://www.w3.org/2000/svg" xmlns:xlink="http://www.w3.org/1999/xlink">
    <title>entrega-logo</title>
    <g id="Welcome" stroke="none" stroke-width="1" fill="none" fill-rule="evenodd">
        <g id="View-1" transform="translate(-85.000000, -58.000000)">
            <g id="entrega-logo" transform="translate(88.000000, 58.000000)">
                <path d="M44.1992,38.3528 C47.7533333,38.3528 50.7717333,37.4381333 53.2544,35.6088 L53.2544,35.6088 L50.1576,30.944 C49.452,31.5189333 48.6549333,31.9501333 47.7664,32.2376 C46.8778667,32.5250667 45.9632,32.6688 45.0224,32.6688 C42.0693333,32.6688 40.4621333,31.5189333 40.2008,29.2192 L40.2008,29.2192 L55.8024,29.2192 C56.0898667,27.9125333 56.2336,26.7496 56.2336,25.7304 C56.2336,23.8749333 55.8089333,22.2416 54.9596,20.8304 C54.1102667,19.4192 52.8950667,18.3281333 51.314,17.5572 C49.7329333,16.7862667 47.884,16.4008 45.7672,16.4008 C43.2584,16.4008 41.0305333,16.93 39.0836,17.9884 C37.1366667,19.0468 35.6209333,20.5102667 34.5364,22.3788 C33.4518667,24.2473333 32.9096,26.3445333 32.9096,28.6704 C32.9096,30.6304 33.3734667,32.3356 34.3012,33.786 C35.2289333,35.2364 36.5486667,36.3601333 38.2604,37.1572 C39.9721333,37.9542667 41.9517333,38.3528 44.1992,38.3528 Z M49.3736,25.2992 L40.632,25.2992 C40.9978667,24.1754667 41.5858667,23.2934667 42.396,22.6532 C43.2061333,22.0129333 44.2122667,21.6928 45.4144,21.6928 C46.6165333,21.6928 47.5834667,22.0129333 48.3152,22.6532 C49.0469333,23.2934667 49.3997333,24.1754667 49.3736,25.2992 L49.3736,25.2992 Z M64.6616,38 L66.7784,27.4944 C67.1181333,25.9002667 67.7061333,24.7046667 68.5424,23.9076 C69.3786667,23.1105333 70.4501333,22.712 71.7568,22.712 C73.7168,22.712 74.6968,23.6528 74.6968,25.5344 C74.6968,26.0309333 74.6445333,26.5013333 74.54,26.9456 L74.54,26.9456 L72.3448,38 L79.7928,38 L82.1448,26.24 C82.3277333,25.3514667 82.4192,24.476 82.4192,23.6136 C82.4192,21.2877333 81.7201333,19.5041333 80.322,18.2628 C78.9238667,17.0214667 77.0618667,16.4008 74.736,16.4008 C73.5077333,16.4008 72.3186667,16.6098667 71.1688,17.028 C70.0189333,17.4461333 68.9866667,18.0864 68.072,18.9488 L68.072,18.9488 L68.5032,16.7536 L61.4472,16.7536 L57.2136,38 L64.6616,38 Z M93.9048,38.3528 C96.1261333,38.3528 97.9685333,37.9346667 99.432,37.0984 L99.432,37.0984 L98.4912,31.9632 C97.7072,32.3813333 96.9624,32.5904 96.2568,32.5904 C94.9501333,32.5904 94.2968,31.9893333 94.2968,30.7872 C94.2968,30.6826667 94.3229333,30.4474667 94.3752,30.0816 L94.3752,30.0816 L95.7864,23.104 L100.608,23.104 L101.7056,17.5376 L96.884,17.5376 L97.9816,12.0104 L90.5336,12.0104 L89.436,17.5376 L86.3392,17.5376 L85.2024,23.104 L88.3384,23.104 L86.9272,30.1208 C86.7965333,30.6957333 86.7312,31.3621333 86.7312,32.12 C86.7312,34.08 87.378,35.6088 88.6716,36.7064 C89.9652,37.804 91.7096,38.3528 93.9048,38.3528 Z M109.4672,38 L111.5056,27.9648 C111.845333,26.24 112.518267,24.9790667 113.5244,24.182 C114.530533,23.3849333 115.869867,22.9864 117.5424,22.9864 C118.0128,22.9864 118.574667,23.0256 119.228,23.104 L119.228,23.104 L120.5216,16.4008 C117.176533,16.4008 114.615467,17.3024 112.8384,19.1056 L112.8384,19.1056 L113.3088,16.7536 L106.2528,16.7536 L102.0192,38 L109.4672,38 Z M131.38,38.3528 C134.934133,38.3528 137.952533,37.4381333 140.4352,35.6088 L140.4352,35.6088 L137.3384,30.944 C136.6328,31.5189333 135.835733,31.9501333 134.9472,32.2376 C134.058667,32.5250667 133.144,32.6688 132.2032,32.6688 C129.250133,32.6688 127.642933,31.5189333 127.3816,29.2192 L127.3816,29.2192 L142.9832,29.2192 C143.270667,27.9125333 143.4144,26.7496 143.4144,25.7304 C143.4144,23.8749333 142.989733,22.2416 142.1404,20.8304 C141.291067,19.4192 140.075867,18.3281333 138.4948,17.5572 C136.913733,16.7862667 135.0648,16.4008 132.948,16.4008 C130.4392,16.4008 128.211333,16.93 126.2644,17.9884 C124.317467,19.0468 122.801733,20.5102667 121.7172,22.3788 C120.632667,24.2473333 120.0904,26.3445333 120.0904,28.6704 C120.0904,30.6304 120.554267,32.3356 121.482,33.786 C122.409733,35.2364 123.729467,36.3601333 125.4412,37.1572 C127.152933,37.9542667 129.132533,38.3528 131.38,38.3528 Z M136.5544,25.2992 L127.8128,25.2992 C128.178667,24.1754667 128.766667,23.2934667 129.5768,22.6532 C130.386933,22.0129333 131.393067,21.6928 132.5952,21.6928 C133.797333,21.6928 134.764267,22.0129333 135.496,22.6532 C136.227733,23.2934667 136.580533,24.1754667 136.5544,25.2992 L136.5544,25.2992 Z M153.9984,45.9576 C157.84,45.9576 160.9368,45.0037333 163.2888,43.096 C165.6408,41.1882667 167.221867,38.1829333 168.032,34.08 L168.032,34.08 L171.4816,16.7536 L164.3864,16.7536 L163.72,20.1248 C163.1712,18.8442667 162.302267,17.9034667 161.1132,17.3024 C159.924133,16.7013333 158.519467,16.4008 156.8992,16.4008 C154.730133,16.4008 152.757067,16.9104 150.98,17.9296 C149.202933,18.9488 147.8048,20.3338667 146.7856,22.0848 C145.7664,23.8357333 145.2568,25.7565333 145.2568,27.8472 C145.2568,29.6765333 145.674933,31.2772 146.5112,32.6492 C147.347467,34.0212 148.4712,35.0730667 149.8824,35.8048 C151.2936,36.5365333 152.848533,36.9024 154.5472,36.9024 C156.8992,36.9024 158.872267,36.1837333 160.4664,34.7464 L160.4664,34.7464 L160.3096,35.452 C159.996,37.0461333 159.362267,38.2417333 158.4084,39.0388 C157.454533,39.8358667 156.049867,40.2344 154.1944,40.2344 C152.809333,40.2344 151.476533,40.0384 150.196,39.6464 C148.915467,39.2544 147.844,38.7186667 146.9816,38.0392 L146.9816,38.0392 L143.6496,43.2136 C146.262933,45.0429333 149.712533,45.9576 153.9984,45.9576 Z M156.7424,30.944 C155.488,30.944 154.508,30.6304 153.8024,30.0032 C153.0968,29.376 152.744,28.5397333 152.744,27.4944 C152.744,25.9786667 153.2144,24.7438667 154.1552,23.79 C155.096,22.8361333 156.3112,22.3592 157.8008,22.3592 C159.029067,22.3592 159.996,22.6793333 160.7016,23.3196 C161.4072,23.9598667 161.76,24.8026667 161.76,25.848 C161.76,27.3637333 161.296133,28.592 160.3684,29.5328 C159.440667,30.4736 158.232,30.944 156.7424,30.944 Z M181.7128,38.3528 C184.117067,38.3528 186.168533,37.5688 187.8672,36.0008 L187.8672,36.0008 L187.436,38 L194.492,38 L198.7256,16.7536 L191.2776,16.7536 L190.768,19.3016 C189.5136,17.3677333 187.344533,16.4008 184.2608,16.4008 C182.170133,16.4008 180.2428,16.9365333 178.4788,18.008 C176.7148,19.0794667 175.316667,20.5494667 174.2844,22.418 C173.252133,24.2865333 172.736,26.3706667 172.736,28.6704 C172.736,30.6565333 173.154133,32.3813333 173.9904,33.8448 C174.826667,35.3082667 175.9308,36.4254667 177.3028,37.1964 C178.6748,37.9673333 180.1448,38.3528 181.7128,38.3528 Z M184.3,32.3552 C183.0456,32.3552 182.059067,31.9958667 181.3404,31.2772 C180.621733,30.5585333 180.2624,29.572 180.2624,28.3176 C180.2624,26.5405333 180.7328,25.1032 181.6736,24.0056 C182.6144,22.908 183.8296,22.3592 185.3192,22.3592 C186.5736,22.3592 187.560133,22.7250667 188.2788,23.4568 C188.997467,24.1885333 189.3568,25.1816 189.3568,26.436 C189.3568,28.1869333 188.8864,29.6112 187.9456,30.7088 C187.0048,31.8064 185.7896,32.3552 184.3,32.3552 Z" id="entrega" fill="#303CEB" fill-rule="nonzero"></path>
                <line x1="0.287179487" y1="22.4" x2="22.1128205" y2="22.4" id="Line" stroke="#303CEB" stroke-width="6.4" stroke-linecap="round"></line>
                <line x1="9.08333333" y1="33.6" x2="22.1166667" y2="33.6" id="Line-Copy" stroke="#303CEB" stroke-width="6.4" stroke-linecap="round"></line>
            </g>
        </g>
    </g>
</svg>