<?xml version="1.0" encoding="UTF-8"?>
<svg width="375px" height="284px" viewBox="0 0 375 284" version="1.1" xmlns="http://www.w3.org/2000/svg" xmlns:xlink="http://www.w3.org/1999/xlink">
    <title>view-3-icon</title>
    <defs>
        <rect id="path-1" x="0" y="0" width="375" height="284"></rect>
        <linearGradient x1="57.1438001%" y1="54.889299%" x2="-49.6782926%" y2="168.899579%" id="linearGradient-3">
            <stop stop-color="#CBE2F7" offset="0%"></stop>
            <stop stop-color="#CDC4EB" offset="100%"></stop>
        </linearGradient>
        <linearGradient x1="100%" y1="123.259804%" x2="5.29871324%" y2="-8.65808824%" id="linearGradient-4">
            <stop stop-color="#CBE2F7" offset="0%"></stop>
            <stop stop-color="#C86DD7" offset="100%"></stop>
        </linearGradient>
        <linearGradient x1="38.2936096%" y1="50%" x2="52.0305483%" y2="50%" id="linearGradient-5">
            <stop stop-color="#CC8241" offset="0%"></stop>
            <stop stop-color="#DEA861" offset="100%"></stop>
        </linearGradient>
        <linearGradient x1="22.159925%" y1="40.069947%" x2="73.6039177%" y2="58.4191278%" id="linearGradient-6">
            <stop stop-color="#DEA861" offset="0%"></stop>
            <stop stop-color="#EBCBA0" offset="100%"></stop>
        </linearGradient>
        <linearGradient x1="66.309899%" y1="9.81048773%" x2="71.1589846%" y2="0.342647171%" id="linearGradient-7">
            <stop stop-color="#236568" offset="0%"></stop>
            <stop stop-color="#2F878A" offset="100%"></stop>
        </linearGradient>
        <linearGradient x1="54.3183715%" y1="49.3972675%" x2="63.031367%" y2="33.9477726%" id="linearGradient-8">
            <stop stop-color="#236568" offset="0%"></stop>
            <stop stop-color="#2F878A" offset="100%"></stop>
        </linearGradient>
        <linearGradient x1="88.2229919%" y1="102.717191%" x2="0%" y2="6.49346465%" id="linearGradient-9">
            <stop stop-color="#B4C5E2" offset="0%"></stop>
            <stop stop-color="#9385C8" offset="100%"></stop>
        </linearGradient>
        <linearGradient x1="0%" y1="0%" x2="101.999998%" y2="100.999999%" id="linearGradient-10">
            <stop stop-color="#CBE2F7" offset="0%"></stop>
            <stop stop-color="#C86DD7" offset="100%"></stop>
        </linearGradient>
    </defs>
    <g id="Welcome" stroke="none" stroke-width="1" fill="none" fill-rule="evenodd">
        <g id="View-3" transform="translate(0.000000, -185.000000)">
            <g id="view-3-icon" transform="translate(0.000000, 185.000000)">
                <mask id="mask-2" fill="white">
                    <use xlink:href="#path-1"></use>
                </mask>
                <use id="Mask" fill="#D8D8D8" opacity="0" xlink:href="#path-1"></use>
                <g mask="url(#mask-2)">
                    <g transform="translate(71.000000, 7.000000)">
                        <g id="Rectangle" transform="translate(0.000000, 24.000000)">
                            <circle id="Oval" stroke="url(#linearGradient-3)" stroke-width="18.54" cx="117" cy="117" r="117"></circle>
                            <circle id="Oval" stroke="url(#linearGradient-3)" stroke-width="16.13" cx="118" cy="118" r="91"></circle>
                            <circle id="Oval" stroke="url(#linearGradient-4)" stroke-width="27.54" opacity="0.593494234" cx="117" cy="117" r="58"></circle>
                        </g>
                        <g id="package" transform="translate(56.000000, 61.000000)">
                            <g id="Group" fill-rule="nonzero">
                                <path d="M112.892112,103.255742 L112.892112,31.8273047 L0.0882475509,36.7437109 L0.0882475509,108.172148 C0.0882475509,109.808945 0.884897619,111.445469 2.47873571,112.380898 L47.1651238,138.601641 C50.3433833,140.466484 54.2588333,140.466484 57.4370929,138.601641 L110.501893,107.464766 C112.095462,106.529336 112.892112,104.892539 112.892112,103.255742 Z" id="Path" fill="url(#linearGradient-5)"></path>
                                <path d="M2.47873571,32.5355078 L55.5435357,1.39863281 C58.7217952,-0.466210938 62.6372452,-0.466210938 65.8152357,1.39863281 L110.501624,27.619375 C113.689031,29.4896875 113.689031,34.1654687 110.501624,36.0357812 L57.4368238,67.1723828 C54.2585643,69.0372266 50.3431143,69.0372266 47.1651238,67.1723828 L2.47873571,40.9519141 C-0.708671429,39.0816016 -0.708671429,34.4058203 2.47873571,32.5355078 Z" id="Path" fill="url(#linearGradient-6)"></path>
                                <polygon id="Path" fill="#DEA861" points="19.684869 22.439375 76.6788405 55.881875 91.7971643 47.0107422 34.8031929 13.5685156"></polygon>
                                <g transform="translate(25.559524, 16.953125)" fill="#CC8241" id="Path">
                                    <polygon points="3.16130952 0.179648437 60.155281 33.6221484 57.1938738 35.3598437 0.199902381 1.91734375"></polygon>
                                    <polygon points="51.1193167 38.92875 51.1193167 51.6178906 66.2376405 42.7467578 66.2376405 30.0576172"></polygon>
                                </g>
                            </g>
                            <g id="Group" transform="translate(75.000000, 47.000000)" fill-rule="nonzero">
                                <path d="M58.5101333,7.72966805 C58.2632,7.5379668 58,7.38926141 57.7285333,7.27369295 L46.9528,0.98753527 C45.212,-0.363958506 42.7061333,0.2133361 41.6941333,2.19908714 L21.6013333,41.933278 L21.3874667,41.7673195 C20.748,41.2708133 20.0469333,40.9345145 19.3250667,40.7318589 L19.3194667,40.7211784 L9.83013333,35.0251867 C9.3128,34.6234357 8.7544,34.3273942 8.17813333,34.1189876 L8.1576,34.1069378 L8.16,34.1118672 C5.40666667,33.1267967 2.22026667,34.2896017 0.783466667,37.1089793 C-0.593866667,39.8114191 0.133066667,43.1401743 2.5024,44.9796846 L20.7856,59.1740664 L32.3426667,65.9161992 L59.5090667,12.305029 C60.3104,10.7339004 59.8874667,8.79881328 58.5101333,7.72966805 L58.5101333,7.72966805 Z" id="Path" fill="url(#linearGradient-7)"></path>
                                <path d="M21.3874667,41.7673195 C20.748,41.2708133 20.0469333,40.9345145 19.3253333,40.7318589 L19.3197333,40.7211784 L9.8304,35.0251867 C9.31306667,34.6234357 8.75466667,34.3273942 8.1784,34.1189876 L8.15786667,34.1069378 L8.16053333,34.1118672 C5.4072,33.1267967 2.2208,34.2896017 0.784,37.1089793 C-0.593333333,39.8114191 0.1336,43.1401743 2.50293333,44.9796846 L20.7858667,59.1740664 L32.3429333,65.9161992 L21.3874667,41.7673195 Z" id="Path" fill="url(#linearGradient-8)"></path>
                                <path d="M32.3432,65.9159253 L14.06,51.7215436 C11.6909333,49.8823071 10.9637333,46.553278 12.3410667,43.851112 C14.0821333,40.4352697 18.3930667,39.4422573 21.3877333,41.7673195 L32.3432,50.2731037 L53.2514667,8.94121992 C54.2634667,6.95546888 56.7690667,6.37817427 58.5101333,7.72966805 C59.8874667,8.79881328 60.3101333,10.7339004 59.5096,12.3047552 L32.3432,65.9159253 Z" id="Path" fill="#06DAAE"></path>
                            </g>
                        </g>
                        <g id="stars" transform="translate(3.000000, 0.000000)">
                            <polygon id="Star" fill="url(#linearGradient-9)" points="29 43.5 11.9542277 52.4614928 15.2096805 33.4807464 1.41936103 20.0385072 20.4771138 17.2692536 29 0 37.5228862 17.2692536 56.580639 20.0385072 42.7903195 33.4807464 46.0457723 52.4614928"></polygon>
                            <polygon id="Star-Copy" fill="url(#linearGradient-10)" points="15.5 135.25 7.56489909 139.421729 9.08036852 130.585865 2.66073703 124.328271 11.5324495 123.039135 15.5 115 19.4675505 123.039135 28.339263 124.328271 21.9196315 130.585865 23.4351009 139.421729"></polygon>
                            <polygon id="Star-Copy" fill="url(#linearGradient-9)" points="152 247.5 139.65651 253.989357 142.013907 240.244678 132.027813 230.510643 145.828255 228.505322 152 216 158.171745 228.505322 171.972187 230.510643 161.986093 240.244678 164.34349 253.989357"></polygon>
                            <polygon id="Star-Copy-2" fill="url(#linearGradient-10)" points="212.5 182.25 204.564899 186.421729 206.080369 177.585865 199.660737 171.328271 208.53245 170.039135 212.5 162 216.46755 170.039135 225.339263 171.328271 218.919631 177.585865 220.435101 186.421729"></polygon>
                        </g>
                    </g>
                </g>
            </g>
        </g>
    </g>
</svg>